<?xml version="1.0" encoding="UTF-8"?>
<svg id="Calque_2" data-name="Calque 2" xmlns="http://www.w3.org/2000/svg" viewBox="0 0 302 217.12">
  <defs>
    <style>
      .cls-1 {
        fill: #fff;
      }

      .cls-2 {
        fill: #e52942;
      }
    </style>
  </defs>
  <g id="Calque_1-2" data-name="Calque 1">
    <g>
      <path class="cls-2" d="M150.63,183c-2.8,0-5.62-.12-8.45-.38-43.41-3.87-78.87-39.64-82.48-83.22-2.27-27.42,7.37-54.02,26.46-73C105.25,7.43,131.93-2.06,159.36,.38c43.6,3.87,79.25,39.52,82.92,82.91h0c2.31,27.31-7.36,53.93-26.53,73.01-17.28,17.21-40.65,26.7-65.12,26.7Zm.28-178.13c-23.11,0-45.1,8.88-61.31,24.99-18.07,17.96-27.19,43.16-25.04,69.14,3.42,41.24,36.98,75.11,78.06,78.76,2.68,.24,5.35,.36,8.01,.36,23.19,0,45.32-8.99,61.69-25.28,18.15-18.07,27.3-43.27,25.11-69.15-3.47-41.07-37.22-74.81-78.5-78.47-2.68-.24-5.36-.36-8.03-.36Z"/>
      <path class="cls-2" d="M219.42,85.34c3.64,43.1-31.92,78.3-75.04,74.46-32.62-2.91-59.1-29.73-61.81-62.36-3.57-43.11,31.53-78.06,74.7-74.23,32.64,2.9,59.38,29.47,62.15,62.13Z"/>
      <g>
        <g>
          <path class="cls-1" d="M241.2,51.74c-.79-.11-1.62-.12-2.42-.12-12.25-.02-24.5-.04-36.75-.06-1.93,0-3.97,.02-5.65,.98-1.43,.82-2.41,2.21-3.35,3.56-10.89,15.65-21.78,31.3-32.67,46.94-1.13,1.62-2.27,3.27-2.87,5.14-.62,1.95-.63,4.04-.63,6.09,.03,31.78,.04,63.56,.04,95.33,0,4.04,3.28,7.32,7.32,7.32h.15c.12,0,.21,.05,.34,.05h11.8c3.8,0,7.62,.23,11.41,.06,2.06-.09,4.48-.55,5.23-2.74,.45-1.31,.31-2.74-.69-3.75-1.13-1.14-2.89-1.24-4.34-1.71-21.16-6.85-21.41-33.18-17.15-50.92,4.7-19.6,14.52-37.44,25.16-54.38,9.05-14.42,19.77-31.36,36.89-36.87,3.57-1.15,7.46-1.9,10.22-4.44,2.76-2.54,3.48-7.72,.3-9.7-.71-.44-1.5-.66-2.33-.77Z"/>
          <path class="cls-1" d="M301.26,210.27l-25.04-36.68c-8.75-13.26-17.7-26.49-27.08-39.67-.65-.92-1.31-1.83-1.96-2.75-.24-.36-.71-.93-1.47-1.44-.63-.42-1.41-.72-2.38-.72h-24.53c-3.85,0-5.77,3.85-3.85,6.97,5.78,8.48,11.57,16.96,17.35,25.45,.19,.25,.38,.51,.57,.76l36.73,52.8c.71,.95,1.89,2.13,3.78,2.13h24.09c3.78,0,5.67-3.78,3.78-6.85Z"/>
        </g>
        <g>
          <path class="cls-1" d="M60.8,51.74c.79-.11,1.62-.12,2.42-.12,12.25-.02,24.5-.04,36.75-.06,1.93,0,3.97,.02,5.65,.98,1.43,.82,2.41,2.21,3.35,3.56,10.89,15.65,21.78,31.3,32.67,46.94,1.13,1.62,2.27,3.27,2.87,5.14,.62,1.95,.63,4.04,.63,6.09-.03,31.78-.04,63.56-.04,95.33,0,4.04-3.28,7.32-7.32,7.32h-.15c-.12,0-.21,.05-.34,.05-3.93,0-7.86,0-11.8,0-3.8,0-7.62,.23-11.41,.06-2.06-.09-4.48-.55-5.23-2.74-.45-1.31-.31-2.74,.69-3.75,1.13-1.14,2.89-1.24,4.34-1.71,21.16-6.85,21.41-33.18,17.15-50.92-4.7-19.6-14.52-37.44-25.16-54.38-9.05-14.42-19.77-31.36-36.89-36.87-3.57-1.15-7.46-1.9-10.22-4.44-2.76-2.54-3.48-7.72-.3-9.7,.71-.44,1.5-.66,2.33-.77Z"/>
          <path class="cls-1" d="M.74,210.27l25.04-36.68c8.75-13.26,17.7-26.49,27.08-39.67,.65-.92,1.31-1.83,1.96-2.75,.24-.36,.71-.93,1.47-1.44,.63-.42,1.41-.72,2.38-.72h24.53c3.85,0,5.77,3.85,3.85,6.97-5.78,8.48-11.57,16.96-17.35,25.45-.19,.25-.38,.51-.57,.76l-36.73,52.8c-.71,.95-1.89,2.13-3.78,2.13H4.52c-3.78,0-5.67-3.78-3.78-6.85Z"/>
        </g>
      </g>
    </g>
  </g>
</svg>